<svg xmlns="http://www.w3.org/2000/svg" viewBox="0 0 79.15 50.37"><defs><style>.cls-1{fill:#7d5d9f;}.cls-2{fill:#fff;fill-rule:evenodd;}</style></defs><title>6b</title><g id="Calque_2" data-name="Calque 2"><g id="Calque_1-2" data-name="Calque 1"><rect class="cls-1" width="79.15" height="50.37"/><path class="cls-2" d="M26.61,37.46c-4.06,0-6.09-3.55-6.19-7.92a4.34,4.34,0,0,1,.4-2,6.07,6.07,0,0,1,5.38-3.4c3.66,0,5.74,2.69,5.74,6.55s-2.08,6.75-5.28,6.75ZM34.83,8.12a26.72,26.72,0,0,0-3.14.15A18.43,18.43,0,0,0,20,13.14c-3.45,3.25-5.74,8.38-5.74,14.72,0,8.18,4.42,14.27,12.44,14.27A11.46,11.46,0,0,0,38.29,30.35c0-6.7-4.42-10.76-10.1-10.76a9.5,9.5,0,0,0-7.42,3.2h-.15c.81-4.57,4.11-8.78,11.07-9.6A17.74,17.74,0,0,1,34.83,13Z"/><path class="cls-2" d="M48.45,28.78a7.51,7.51,0,0,1,.17-1.46,5.24,5.24,0,0,1,5-4.12c3.74,0,5.62,3.2,5.62,7.13,0,4.52-2.15,7.31-5.67,7.31a5.13,5.13,0,0,1-5-3.93,6.29,6.29,0,0,1-.13-1.32Zm-5.63,6.58c0,2.24-.09,4.7-.18,6.21h4.8l.27-3.33h.09a7.66,7.66,0,0,0,7,3.83c5,0,10.1-4,10.1-12,0-6.76-3.84-11.28-9.28-11.28a8,8,0,0,0-7.12,3.56h-.09V9.09H42.82Z"/></g></g></svg>