<svg xmlns="http://www.w3.org/2000/svg" viewBox="0 0 77.74 49.47"><defs><style>.cls-1{fill:#fd0;}.cls-2{fill:#1a171b;fill-rule:evenodd;}</style></defs><title>40</title><g id="Calque_2" data-name="Calque 2"><g id="Calque_1-2" data-name="Calque 1"><rect class="cls-1" width="77.74" height="49.47"/><path class="cls-2" d="M20.22,28v-.1l6-8.88c1-1.79,1.85-3.44,2.84-5.48h.2c-.1,1.94-.2,3.79-.2,5.63V28ZM34.83,40.83V32.61H39V28H34.83V8.42H27.6L14.33,28.62v4H29v8.22Z"/><path class="cls-2" d="M50.93,36.7c-3.39,0-5.58-4.29-5.48-12.17,0-7.68,2.19-12,5.58-12,3.69,0,5.49,4.44,5.49,12,0,7.78-1.85,12.17-5.54,12.17Zm-.1,4.68c7.78,0,11.82-6.53,11.82-17,0-9.53-3.64-16.51-11.47-16.51-7.58,0-11.86,6.73-11.86,16.86,0,9.87,4,16.65,11.46,16.65Z"/></g></g></svg>