<svg xmlns="http://www.w3.org/2000/svg" viewBox="0 0 78.17 54.09"><defs><style>.cls-1{fill:#ec700c;}.cls-2{fill:#1a171b;fill-rule:evenodd;}</style></defs><title>ligne57</title><g id="Calque_2" data-name="Calque 2"><g id="Calque_1-2" data-name="Calque 1"><rect class="cls-1" width="78.17" height="54.09"/><path class="cls-2" d="M34.16,9.22H15.78L13.49,27.1a38.5,38.5,0,0,1,4.86-.33c7,0,10,2.67,10,6.76S24.61,40,20.69,40a17.91,17.91,0,0,1-7.8-1.86l-1.36,5.07A20.39,20.39,0,0,0,21,45.26c8.67,0,14.29-5.51,14.29-12.27a10.18,10.18,0,0,0-4.64-9A15.65,15.65,0,0,0,22,21.7a16.31,16.31,0,0,0-2.51.17l1-7.09H34.16Z"/><polygon class="cls-2" points="39.55 9.22 39.55 14.77 56.42 14.77 56.42 14.88 41.36 44.93 48.5 44.93 63.56 13.5 63.56 9.22 39.55 9.22"/></g></g></svg>