<svg xmlns="http://www.w3.org/2000/svg" viewBox="0 0 78.72 50.09"><defs><style>.cls-1{fill:#7d5d9f;}.cls-2{fill:#fff;fill-rule:evenodd;}</style></defs><title>6</title><g id="Calque_2" data-name="Calque 2"><g id="Calque_1-2" data-name="Calque 1"><rect class="cls-1" width="78.72" height="50.09"/><path class="cls-2" d="M39.76,37.26c-4,0-6.06-3.54-6.16-7.88a4.26,4.26,0,0,1,.4-2A6,6,0,0,1,39.35,24c3.64,0,5.71,2.67,5.71,6.51S43,37.26,39.81,37.26ZM47.94,8.07a26.48,26.48,0,0,0-3.13.15,18.36,18.36,0,0,0-11.67,4.85c-3.43,3.23-5.7,8.33-5.7,14.64,0,8.13,4.39,14.19,12.37,14.19A11.4,11.4,0,0,0,51.37,30.19c0-6.67-4.39-10.71-10-10.71A9.48,9.48,0,0,0,34,22.66H33.8c.81-4.54,4.09-8.73,11-9.54A17.59,17.59,0,0,1,47.94,13Z"/></g></g></svg>