<svg xmlns="http://www.w3.org/2000/svg" viewBox="0 0 78.44 49.92"><defs><style>.cls-1{fill:#89cccf;}.cls-2{fill:#1a171b;fill-rule:evenodd;}</style></defs><title>12</title><g id="Calque_2" data-name="Calque 2"><g id="Calque_1-2" data-name="Calque 1"><rect class="cls-1" width="78.44" height="49.92"/><polygon class="cls-2" points="26.64 41.59 32.63 41.59 32.63 8.88 27.49 8.88 19.49 12.81 20.55 17.49 26.54 14.47 26.64 14.47 26.64 41.59"/><path class="cls-2" d="M61,41.59V36.51H47.62V36.4l2.81-2.46c5.74-5.28,9.87-9.91,9.87-15.7,0-5.33-3.53-9.91-10.77-9.91A16.17,16.17,0,0,0,39.47,11.7l1.81,4.38a11.75,11.75,0,0,1,7-2.72c4.28,0,5.84,2.57,5.84,5.54,0,4.32-3.68,8.25-11.37,15.34l-3.88,3.62v3.73Z"/></g></g></svg>