<svg xmlns="http://www.w3.org/2000/svg" viewBox="0 0 82.21 52.31"><defs><style>.cls-1{fill:#fabb00;}.cls-2{fill:#1a171b;fill-rule:evenodd;}</style></defs><title>10</title><g id="Calque_2" data-name="Calque 2"><g id="Calque_1-2" data-name="Calque 1"><rect class="cls-1" width="82.21" height="52.31"/><polygon class="cls-2" points="27.91 43.18 34.19 43.18 34.19 8.9 28.81 8.9 20.43 13.02 21.54 17.92 27.81 14.76 27.91 14.76 27.91 43.18"/><path class="cls-2" d="M52.54,38.8c-3.59,0-5.91-4.53-5.8-12.86,0-8.12,2.32-12.66,5.9-12.66,3.91,0,5.8,4.69,5.8,12.66,0,8.22-1.95,12.86-5.85,12.86Zm-.11,5c8.23,0,12.5-6.91,12.5-18,0-10.07-3.85-17.45-12.13-17.45-8,0-12.55,7.11-12.55,17.82.06,10.44,4.27,17.61,12.13,17.61Z"/></g></g></svg>