<svg xmlns="http://www.w3.org/2000/svg" viewBox="0 0 83.95 53.42"><defs><style>.cls-1{fill:#89cccf;}.cls-2{fill:#1a171b;fill-rule:evenodd;}</style></defs><title>ligne71a</title><g id="Calque_2" data-name="Calque 2"><g id="Calque_1-2" data-name="Calque 1"><rect class="cls-1" width="83.95" height="53.42"/><polygon class="cls-2" points="5.46 9.09 5.46 14.53 21.99 14.53 21.99 14.64 7.24 44.1 14.24 44.1 28.99 13.29 28.99 9.09 5.46 9.09"/><polygon class="cls-2" points="41.48 44.1 47.89 44.1 47.89 9.09 42.4 9.09 33.84 13.29 34.97 18.3 41.38 15.07 41.48 15.07 41.48 44.1"/><path class="cls-2" d="M72.4,34.89a4.24,4.24,0,0,1-.17,1.45A5.42,5.42,0,0,1,67,40a3.48,3.48,0,0,1-3.77-3.77c0-4,4.47-4.95,9.16-4.9Zm6.46-6.52c0-5.76-2.43-11.09-10.83-11.09a18.9,18.9,0,0,0-9.47,2.31l1.29,4.31A13.88,13.88,0,0,1,66.9,22c4.63,0,5.33,2.86,5.33,4.58V27c-9.69,0-15.56,3.34-15.56,9.91,0,4,3,7.81,8.24,7.81a9.59,9.59,0,0,0,7.75-3.5h.17l.48,2.91h6a34.81,34.81,0,0,1-.43-6.31Z"/></g></g></svg>