<svg xmlns="http://www.w3.org/2000/svg" viewBox="0 0 79.46 50.57"><defs><style>.cls-1{fill:#fd0;}.cls-2{fill:#1a171b;fill-rule:evenodd;}</style></defs><title>50a</title><g id="Calque_2" data-name="Calque 2"><g id="Calque_1-2" data-name="Calque 1"><rect class="cls-1" width="79.46" height="50.57"/><path class="cls-2" d="M25.51,8.61H8.33L6.19,25.33A33.89,33.89,0,0,1,10.73,25c6.57,0,9.37,2.5,9.37,6.32s-3.51,6-7.18,6a16.7,16.7,0,0,1-7.29-1.73L4.35,40.36a19.16,19.16,0,0,0,8.82,1.94c8.11,0,13.36-5.15,13.36-11.47a9.5,9.5,0,0,0-4.34-8.41,14.63,14.63,0,0,0-8-2.14,15.66,15.66,0,0,0-2.34.15l1-6.62H25.51Z"/><path class="cls-2" d="M40.59,37.51c-3.46,0-5.7-4.39-5.6-12.44,0-7.85,2.24-12.23,5.71-12.23,3.77,0,5.6,4.54,5.6,12.23,0,8-1.88,12.44-5.65,12.44Zm-.1,4.79c7.95,0,12.08-6.68,12.08-17.38,0-9.74-3.72-16.87-11.72-16.87-7.75,0-12.13,6.88-12.13,17.23.05,10.09,4.13,17,11.72,17Z"/><path class="cls-2" d="M69.16,33.9A4,4,0,0,1,69,35.13a4.64,4.64,0,0,1-4.45,3.08A3,3,0,0,1,61.37,35c0-3.4,3.81-4.22,7.79-4.18Zm5.51-5.56c0-4.9-2.06-9.44-9.22-9.44a16.07,16.07,0,0,0-8.07,2l1.1,3.67a11.76,11.76,0,0,1,6-1.65c3.94,0,4.54,2.43,4.54,3.89v.37c-8.26,0-13.26,2.85-13.26,8.44a6.63,6.63,0,0,0,7,6.65,8.15,8.15,0,0,0,6.6-3h.14L70,41.74H75a29.71,29.71,0,0,1-.37-5.37Z"/></g></g></svg>