<svg xmlns="http://www.w3.org/2000/svg" viewBox="0 0 74.92 47.67"><defs><style>.cls-1{fill:#89cccf;}.cls-2{fill:#1a171b;fill-rule:evenodd;}</style></defs><title>15a</title><g id="Calque_2" data-name="Calque 2"><g id="Calque_1-2" data-name="Calque 1"><rect class="cls-1" width="74.92" height="47.67"/><polygon class="cls-2" points="14.29 39.35 20 39.35 20 8.12 15.1 8.12 7.46 11.86 8.47 16.33 14.19 13.45 14.29 13.45 14.29 39.35"/><path class="cls-2" d="M45.86,8.12H29.66l-2,15.76a31.9,31.9,0,0,1,4.27-.29c6.2,0,8.84,2.35,8.84,6S37.45,35.22,34,35.22a15.76,15.76,0,0,1-6.87-1.64l-1.21,4.47a18.13,18.13,0,0,0,8.32,1.83c7.64,0,12.59-4.86,12.59-10.81a9,9,0,0,0-4.09-7.93,13.74,13.74,0,0,0-7.59-2,15.49,15.49,0,0,0-2.21.14L33.84,13h12Z"/><path class="cls-2" d="M64,32a3.6,3.6,0,0,1-.13,1.17,4.36,4.36,0,0,1-4.2,2.9,2.79,2.79,0,0,1-3-3c0-3.2,3.59-4,7.35-3.93Zm5.19-5.23c0-4.63-2-8.91-8.69-8.91a15.22,15.22,0,0,0-7.62,1.86l1,3.46a11.15,11.15,0,0,1,5.67-1.56c3.72,0,4.28,2.3,4.28,3.68v.35c-7.79-.05-12.5,2.68-12.5,7.95A6.25,6.25,0,0,0,58,39.82,7.67,7.67,0,0,0,64.21,37h.14l.38,2.34h4.8a28.46,28.46,0,0,1-.34-5.06Z"/></g></g></svg>