<svg xmlns="http://www.w3.org/2000/svg" viewBox="0 0 82.13 52.27"><defs><style>.cls-1{fill:#7db6df;}.cls-2{fill:#1a171b;fill-rule:evenodd;}</style></defs><title>ligne63</title><g id="Calque_2" data-name="Calque 2"><g id="Calque_1-2" data-name="Calque 1"><rect class="cls-1" width="82.13" height="52.27"/><path class="cls-2" d="M28.68,38.87c-4.21,0-6.32-3.69-6.43-8.21a4.36,4.36,0,0,1,.43-2.06,6.3,6.3,0,0,1,5.58-3.53c3.79,0,5.95,2.79,5.95,6.8s-2.16,7-5.48,7ZM37.22,8.42A27,27,0,0,0,34,8.58a19.15,19.15,0,0,0-12.17,5.06c-3.58,3.37-6,8.69-6,15.28,0,8.48,4.58,14.8,12.9,14.8A11.9,11.9,0,0,0,40.8,31.5c0-7-4.58-11.17-10.48-11.17a9.87,9.87,0,0,0-7.7,3.32h-.15c.84-4.74,4.26-9.11,11.48-10a18.3,18.3,0,0,1,3.27-.16Z"/><path class="cls-2" d="M41.85,41.35a18.71,18.71,0,0,0,9.59,2.37c8.48,0,13.33-4.58,13.33-10.38,0-4.63-3.37-7.74-7.54-8.53V24.7c4.22-1.47,6.33-4.42,6.33-8,0-4.47-3.59-8.37-10.7-8.37A19.12,19.12,0,0,0,43,11l1.48,4.69a13.74,13.74,0,0,1,7-2.16c3.8,0,5.48,1.95,5.48,4.32,0,3.37-3.79,4.74-6.74,4.74h-2.9v4.74h3c3.9,0,7.74,1.74,7.74,5.8,0,2.68-1.94,5.48-6.9,5.48a16.9,16.9,0,0,1-7.79-2.11Z"/></g></g></svg>