<svg xmlns="http://www.w3.org/2000/svg" viewBox="0 0 85 54.09"><defs><style>.cls-1{fill:#fd0;}.cls-2{fill:#1a171b;fill-rule:evenodd;}</style></defs><title>50</title><g id="Calque_2" data-name="Calque 2"><g id="Calque_1-2" data-name="Calque 1"><rect class="cls-1" width="85" height="54.09"/><path class="cls-2" d="M39.55,9.21H21.18L18.89,27.09a38.19,38.19,0,0,1,4.85-.33c7,0,10,2.67,10,6.76S30,40,26.08,40a17.87,17.87,0,0,1-7.79-1.86l-1.37,5.07a20.46,20.46,0,0,0,9.44,2.07c8.66,0,14.28-5.5,14.28-12.26A10.17,10.17,0,0,0,36,24a15.71,15.71,0,0,0-8.62-2.29,16.5,16.5,0,0,0-2.51.17l1-7.09H39.55Z"/><path class="cls-2" d="M55.69,40.12c-3.71,0-6.11-4.69-6-13.3,0-8.4,2.4-13.09,6.1-13.09,4,0,6,4.85,6,13.09,0,8.5-2,13.3-6,13.3Zm-.11,5.12c8.5,0,12.92-7.14,12.92-18.59,0-10.41-4-18-12.54-18C47.67,8.61,43,16,43,27c.06,10.79,4.42,18.2,12.54,18.2Z"/></g></g></svg>