<svg xmlns="http://www.w3.org/2000/svg" viewBox="0 0 79.71 50.72"><defs><style>.cls-1{fill:#89cccf;}.cls-2{fill:#1a171b;fill-rule:evenodd;}</style></defs><title>22</title><g id="Calque_2" data-name="Calque 2"><g id="Calque_1-2" data-name="Calque 1"><rect class="cls-1" width="79.71" height="50.72"/><path class="cls-2" d="M39.7,41.87V36.7H26.1v-.1L29,34.1c5.83-5.37,10-10.08,10-16C39,12.72,35.4,8.07,28,8.07A16.44,16.44,0,0,0,17.81,11.5l1.84,4.44a12,12,0,0,1,7.11-2.76c4.35,0,5.93,2.61,5.93,5.63,0,4.39-3.73,8.38-11.55,15.59L17.2,38.08v3.79Z"/><path class="cls-2" d="M62,41.87V36.7H48.39v-.1l2.86-2.5c5.83-5.37,10-10.08,10-16,0-5.42-3.58-10.07-10.94-10.07A16.44,16.44,0,0,0,40.1,11.5l1.84,4.44a12,12,0,0,1,7.11-2.76c4.35,0,5.93,2.61,5.93,5.63,0,4.39-3.73,8.38-11.55,15.59l-3.94,3.68v3.79Z"/></g></g></svg>