<svg xmlns="http://www.w3.org/2000/svg" viewBox="0 0 75.55 48.08"><defs><style>.cls-1{fill:#cc071e;}.cls-2{fill:#fff;fill-rule:evenodd;}</style></defs><title>4a</title><g id="Calque_2" data-name="Calque 2"><g id="Calque_1-2" data-name="Calque 1"><rect class="cls-1" width="75.55" height="48.08"/><path class="cls-2" d="M20.35,27.18v-.09l5.81-8.63c1-1.75,1.8-3.35,2.76-5.33h.2c-.1,1.89-.2,3.68-.2,5.47v8.58ZM34.54,39.69v-8h4.08V27.18H34.54v-19h-7L14.63,27.81v3.88H28.92v8Z"/><path class="cls-2" d="M53.81,32.23a3.6,3.6,0,0,1-.13,1.17,4.4,4.4,0,0,1-4.23,2.93,2.82,2.82,0,0,1-3.05-3.06c0-3.22,3.62-4,7.41-4ZM59.05,27c0-4.67-2-9-8.77-9a15.29,15.29,0,0,0-7.68,1.88l1,3.49a11.21,11.21,0,0,1,5.71-1.57c3.76,0,4.32,2.31,4.32,3.71v.35c-7.85-.05-12.6,2.7-12.6,8a6.31,6.31,0,0,0,6.67,6.33A7.75,7.75,0,0,0,54,37.33h.13l.4,2.36H59.4a28,28,0,0,1-.35-5.11Z"/></g></g></svg>