<svg xmlns="http://www.w3.org/2000/svg" viewBox="0 0 76.64 48.77"><defs><style>.cls-1{fill:#f7c9dd;}.cls-2{fill:#1a171b;fill-rule:evenodd;}</style></defs><title>31</title><g id="Calque_2" data-name="Calque 2"><g id="Calque_1-2" data-name="Calque 1"><rect class="cls-1" width="76.64" height="48.77"/><path class="cls-2" d="M18.36,38.58a17.43,17.43,0,0,0,8.94,2.21c7.92,0,12.44-4.27,12.44-9.68,0-4.33-3.15-7.23-7-8v-.1c3.93-1.38,5.9-4.13,5.9-7.47,0-4.18-3.34-7.82-10-7.82a17.82,17.82,0,0,0-9.19,2.46l1.37,4.37a12.94,12.94,0,0,1,6.54-2c3.54,0,5.11,1.82,5.11,4,0,3.14-3.54,4.42-6.29,4.42h-2.7v4.43h2.75c3.64,0,7.23,1.62,7.23,5.4C33.45,33.37,31.63,36,27,36a15.79,15.79,0,0,1-7.28-2Z"/><polygon class="cls-2" points="49.42 40.25 55.27 40.25 55.27 8.3 50.26 8.3 42.44 12.14 43.47 16.71 49.32 13.76 49.42 13.76 49.42 40.25"/></g></g></svg>