<svg xmlns="http://www.w3.org/2000/svg" viewBox="0 0 79.71 50.72"><defs><style>.cls-1{fill:#f7c9dd;}.cls-2{fill:#1a171b;fill-rule:evenodd;}</style></defs><title>ligne62</title><g id="Calque_2" data-name="Calque 2"><g id="Calque_1-2" data-name="Calque 1"><rect class="cls-1" width="79.71" height="50.72"/><path class="cls-2" d="M27.83,37.72c-4.09,0-6.13-3.57-6.23-8a4.29,4.29,0,0,1,.41-2,6.1,6.1,0,0,1,5.41-3.42c3.69,0,5.78,2.71,5.78,6.59s-2.09,6.8-5.32,6.8ZM36.12,8.17A25.49,25.49,0,0,0,33,8.33a18.51,18.51,0,0,0-11.81,4.91c-3.48,3.27-5.78,8.43-5.78,14.82,0,8.23,4.45,14.37,12.52,14.37A11.54,11.54,0,0,0,39.59,30.57c0-6.75-4.44-10.84-10.17-10.84A9.59,9.59,0,0,0,22,23H21.8c.82-4.6,4.14-8.84,11.15-9.66a17.2,17.2,0,0,1,3.17-.16Z"/><path class="cls-2" d="M63.26,41.87V36.7H49.66v-.1l2.87-2.51c5.82-5.36,10-10.07,10-16,0-5.42-3.58-10.07-10.94-10.07A16.4,16.4,0,0,0,41.38,11.5l1.84,4.44a12,12,0,0,1,7.11-2.76c4.34,0,5.93,2.61,5.93,5.63,0,4.39-3.73,8.38-11.56,15.59l-3.93,3.68v3.79Z"/></g></g></svg>