<svg xmlns="http://www.w3.org/2000/svg" viewBox="0 0 82 52.18"><defs><style>.cls-1{fill:#f7c9dd;}.cls-2{fill:#1a171b;fill-rule:evenodd;}</style></defs><title>19</title><g id="Calque_2" data-name="Calque 2"><g id="Calque_1-2" data-name="Calque 1"><rect class="cls-1" width="82" height="52.18"/><polygon class="cls-2" points="27.85 43.07 34.1 43.07 34.1 8.88 28.74 8.88 20.38 12.98 21.48 17.88 27.74 14.72 27.85 14.72 27.85 43.07"/><path class="cls-2" d="M52.25,13.14c4.16,0,5.94,3.95,5.89,8.58a3.88,3.88,0,0,1-.37,1.84,6.34,6.34,0,0,1-5.52,2.84c-3.58,0-5.63-2.74-5.63-6.26,0-4.1,2.32-7,5.58-7Zm-9,30.4a24.26,24.26,0,0,0,3.9-.1,19,19,0,0,0,11.73-4.68c3.57-3.37,5.94-8.58,5.94-15.89,0-8.31-4.26-14.57-12.2-14.57A12.11,12.11,0,0,0,40.21,20.51c0,6.31,4.41,10.57,10.36,10.57a9.71,9.71,0,0,0,7.47-3h.1a12.41,12.41,0,0,1-4.42,7.63,12.62,12.62,0,0,1-6.94,2.63,17.2,17.2,0,0,1-3.58.1Z"/></g></g></svg>