<svg xmlns="http://www.w3.org/2000/svg" viewBox="0 0 78.72 50.09"><defs><style>.cls-1{fill:#7d5d9f;}.cls-2{fill:#fff;fill-rule:evenodd;}</style></defs><title>6a</title><g id="Calque_2" data-name="Calque 2"><g id="Calque_1-2" data-name="Calque 1"><rect class="cls-1" width="78.72" height="50.09"/><path class="cls-2" d="M28.21,37.26c-4,0-6.05-3.54-6.15-7.88a4.29,4.29,0,0,1,.4-2A6,6,0,0,1,27.81,24c3.64,0,5.71,2.67,5.71,6.51s-2.07,6.72-5.26,6.72ZM36.4,8.07a26.72,26.72,0,0,0-3.14.15A18.36,18.36,0,0,0,21.6,13.07c-3.43,3.23-5.7,8.33-5.7,14.64,0,8.13,4.39,14.19,12.36,14.19A11.4,11.4,0,0,0,39.83,30.19c0-6.67-4.4-10.71-10-10.71a9.46,9.46,0,0,0-7.37,3.18h-.15c.81-4.54,4.09-8.73,11-9.54A17.74,17.74,0,0,1,36.4,13Z"/><path class="cls-2" d="M56.06,33.57a4,4,0,0,1-.13,1.23,4.6,4.6,0,0,1-4.41,3.05,2.93,2.93,0,0,1-3.18-3.18c0-3.37,3.77-4.18,7.72-4.14Zm5.46-5.49c0-4.87-2.05-9.36-9.14-9.36a15.91,15.91,0,0,0-8,2l1.09,3.64a11.66,11.66,0,0,1,6-1.64c3.91,0,4.5,2.41,4.5,3.86v.37c-8.18,0-13.13,2.81-13.13,8.36a6.57,6.57,0,0,0,7,6.59,8.06,8.06,0,0,0,6.54-3h.14l.41,2.46h5A30.22,30.22,0,0,1,61.52,36Z"/></g></g></svg>