<svg xmlns="http://www.w3.org/2000/svg" viewBox="0 0 163.62 58.37"><defs><style>.cls-1{fill:#9fc204;}.cls-2{fill:#1a171b;fill-rule:evenodd;}.cls-3{font-size:51px;fill:#fff;stroke:#fff;stroke-miterlimit:10;font-family:MyriadPro-Regular, Myriad Pro;}</style></defs><title>Fichier 20</title><g id="Calque_2" data-name="Calque 2"><g id="Calque_1-2" data-name="Calque 1"><rect class="cls-1" y="2.68" width="78.86" height="50.18"/><path class="cls-2" d="M39.27,44.09V39H25.82v-.1l2.83-2.47c5.76-5.32,9.91-10,9.91-15.79,0-5.36-3.54-10-10.82-10a16.3,16.3,0,0,0-10.12,3.39l1.82,4.4a11.88,11.88,0,0,1,7-2.73c4.3,0,5.87,2.58,5.87,5.56-.05,4.35-3.69,8.3-11.43,15.43L17,40.35v3.74Z"/><polygon class="cls-2" points="39.57 11.22 39.57 16.32 55.1 16.32 55.1 16.43 41.24 44.09 47.82 44.09 61.68 15.16 61.68 11.22 39.57 11.22"/><text class="cls-3" transform="translate(106.34 43.19)">29</text></g></g></svg>