<svg xmlns="http://www.w3.org/2000/svg" viewBox="0 0 78.43 49.91"><defs><style>.cls-1{fill:#f7c9dd;}.cls-2{fill:#1a171b;fill-rule:evenodd;}</style></defs><title>ligne72</title><g id="Calque_2" data-name="Calque 2"><g id="Calque_1-2" data-name="Calque 1"><rect class="cls-1" width="78.43" height="49.91"/><polygon class="cls-2" points="16.17 8.5 16.17 13.58 31.61 13.58 31.61 13.68 17.83 41.19 24.37 41.19 38.15 12.42 38.15 8.5 16.17 8.5"/><path class="cls-2" d="M62.25,41.19V36.11H48.87V36l2.81-2.46c5.74-5.29,9.86-9.91,9.86-15.7,0-5.33-3.52-9.91-10.76-9.91a16.17,16.17,0,0,0-10.06,3.37l1.81,4.38a11.75,11.75,0,0,1,7-2.72c4.28,0,5.83,2.57,5.83,5.54,0,4.32-3.67,8.25-11.36,15.34l-3.88,3.62v3.72Z"/></g></g></svg>