<svg xmlns="http://www.w3.org/2000/svg" viewBox="0 0 80.27 51.08"><defs><style>.cls-1{fill:#89cccf;}.cls-2{fill:#1a171b;fill-rule:evenodd;}</style></defs><title>21</title><g id="Calque_2" data-name="Calque 2"><g id="Calque_1-2" data-name="Calque 1"><rect class="cls-1" width="80.27" height="51.08"/><path class="cls-2" d="M40,42.16V37H26.28v-.1l2.89-2.52C35,28.93,39.26,24.19,39.26,18.27c0-5.46-3.61-10.14-11-10.14a16.55,16.55,0,0,0-10.3,3.45l1.85,4.48A12,12,0,0,1,27,13.28c4.38,0,6,2.63,6,5.66-.05,4.43-3.75,8.45-11.63,15.71l-4,3.7v3.81Z"/><polygon class="cls-2" points="49.71 42.16 55.84 42.16 55.84 8.7 50.59 8.7 42.4 12.71 43.48 17.5 49.61 14.41 49.71 14.41 49.71 42.16"/></g></g></svg>