<svg xmlns="http://www.w3.org/2000/svg" viewBox="0 0 79.08 50.32"><defs><style>.cls-1{fill:#f7c9dd;}.cls-2{fill:#1a171b;fill-rule:evenodd;}</style></defs><title>13</title><g id="Calque_2" data-name="Calque 2"><g id="Calque_1-2" data-name="Calque 1"><rect class="cls-1" width="79.08" height="50.32"/><polygon class="cls-2" points="26.85 41.54 32.89 41.54 32.89 8.57 27.72 8.57 19.65 12.52 20.72 17.24 26.75 14.2 26.85 14.2 26.85 41.54"/><path class="cls-2" d="M39,39.81a17.94,17.94,0,0,0,9.23,2.28c8.17,0,12.83-4.41,12.83-10,0-4.46-3.24-7.45-7.25-8.21v-.11c4.06-1.42,6.09-4.26,6.09-7.71,0-4.31-3.45-8.06-10.3-8.06a18.42,18.42,0,0,0-9.49,2.54l1.42,4.51A13.31,13.31,0,0,1,48.31,13c3.65,0,5.28,1.88,5.28,4.16,0,3.25-3.66,4.56-6.5,4.56H44.3v4.57h2.84c3.76,0,7.46,1.67,7.46,5.58,0,2.59-1.88,5.27-6.64,5.27a16.33,16.33,0,0,1-7.51-2Z"/></g></g></svg>