<svg xmlns="http://www.w3.org/2000/svg" viewBox="0 0 77.28 49.18"><defs><style>.cls-1{fill:#fabb00;}.cls-2{fill:#1a171b;fill-rule:evenodd;}</style></defs><title>ligne70</title><g id="Calque_2" data-name="Calque 2"><g id="Calque_1-2" data-name="Calque 1"><rect class="cls-1" width="77.28" height="49.18"/><polygon class="cls-2" points="15.93 8.37 15.93 13.38 31.15 13.38 31.15 13.48 17.57 40.59 24.01 40.59 37.6 12.24 37.6 8.37 15.93 8.37"/><path class="cls-2" d="M50.63,36.48c-3.37,0-5.55-4.26-5.45-12.1,0-7.63,2.18-11.89,5.55-11.89,3.67,0,5.46,4.41,5.46,11.89,0,7.74-1.84,12.1-5.51,12.1Zm-.09,4.66c7.73,0,11.74-6.49,11.74-16.9,0-9.47-3.62-16.41-11.4-16.41-7.54,0-11.8,6.69-11.8,16.75.05,9.82,4,16.56,11.4,16.56Z"/></g></g></svg>