<svg xmlns="http://www.w3.org/2000/svg" viewBox="0 0 81.65 51.96"><defs><style>.cls-1{fill:#f7c9dd;}.cls-2{fill:#1a171b;fill-rule:evenodd;}</style></defs><title>72a</title><g id="Calque_2" data-name="Calque 2"><g id="Calque_1-2" data-name="Calque 1"><rect class="cls-1" width="81.65" height="51.96"/><polygon class="cls-2" points="5.31 8.85 5.31 14.14 21.39 14.14 21.39 14.24 7.04 42.89 13.85 42.89 28.2 12.93 28.2 8.85 5.31 8.85"/><path class="cls-2" d="M53.29,42.89V37.6H39.36v-.11l2.93-2.56c6-5.5,10.26-10.32,10.26-16.34,0-5.55-3.66-10.32-11.2-10.32a16.85,16.85,0,0,0-10.48,3.51l1.89,4.55A12.28,12.28,0,0,1,40,13.51c4.45,0,6.07,2.67,6.07,5.76,0,4.5-3.82,8.59-11.83,16l-4,3.77v3.88Z"/><path class="cls-2" d="M70.41,33.93a4.58,4.58,0,0,1-.15,1.42,5.29,5.29,0,0,1-5.08,3.51,3.38,3.38,0,0,1-3.67-3.67c0-3.88,4.35-4.82,8.9-4.77ZM76.7,27.6c0-5.61-2.36-10.79-10.53-10.79A18.42,18.42,0,0,0,57,19.06l1.26,4.19a13.52,13.52,0,0,1,6.86-1.89c4.51,0,5.19,2.78,5.19,4.45v.42c-9.43-.05-15.14,3.25-15.14,9.64a7.57,7.57,0,0,0,8,7.6,9.35,9.35,0,0,0,7.55-3.41h.15l.48,2.83h5.81a33.84,33.84,0,0,1-.42-6.13Z"/></g></g></svg>