<svg xmlns="http://www.w3.org/2000/svg" viewBox="0 0 78.19 49.76"><defs><style>.cls-1{fill:#fd0;}.cls-2{fill:#1a171b;fill-rule:evenodd;}</style></defs><title>30</title><g id="Calque_2" data-name="Calque 2"><g id="Calque_1-2" data-name="Calque 1"><rect class="cls-1" width="78.19" height="49.76"/><path class="cls-2" d="M16.22,39.36a17.75,17.75,0,0,0,9.13,2.26c8.07,0,12.69-4.36,12.69-9.88,0-4.41-3.21-7.37-7.17-8.12v-.1c4-1.41,6-4.22,6-7.63,0-4.26-3.41-8-10.18-8a18.11,18.11,0,0,0-9.37,2.51l1.4,4.46a13.12,13.12,0,0,1,6.67-2.06c3.61,0,5.22,1.86,5.22,4.12,0,3.21-3.62,4.51-6.42,4.51H21.44V26h2.81c3.71,0,7.37,1.66,7.37,5.52,0,2.56-1.86,5.22-6.57,5.22a16.12,16.12,0,0,1-7.42-2Z"/><path class="cls-2" d="M50.48,36.91c-3.41,0-5.62-4.32-5.52-12.24,0-7.72,2.21-12,5.62-12,3.71,0,5.51,4.47,5.51,12,0,7.82-1.85,12.24-5.56,12.24Zm-.11,4.71c7.83,0,11.89-6.57,11.89-17.1,0-9.58-3.66-16.6-11.53-16.6-7.63,0-11.94,6.77-11.94,17,.05,9.93,4.06,16.75,11.54,16.75Z"/></g></g></svg>