<svg xmlns="http://www.w3.org/2000/svg" viewBox="0 0 81.7 51.99"><defs><style>.cls-1{fill:#89cccf;}.cls-2{fill:#1a171b;fill-rule:evenodd;}</style></defs><title>24</title><g id="Calque_2" data-name="Calque 2"><g id="Calque_1-2" data-name="Calque 1"><rect class="cls-1" width="81.7" height="51.99"/><path class="cls-2" d="M40.69,42.91V37.62H26.75v-.1L29.68,35C35.66,29.45,40,24.62,40,18.6,40,13,36.29,8.27,28.74,8.27a16.79,16.79,0,0,0-10.48,3.52l1.89,4.55a12.25,12.25,0,0,1,7.28-2.83c4.46,0,6.08,2.68,6.08,5.77,0,4.51-3.83,8.59-11.84,16l-4,3.78v3.87Z"/><path class="cls-2" d="M45.41,29.39v-.1L51.7,20c1-1.89,1.93-3.62,3-5.76h.21c-.1,2-.21,4-.21,5.92v9.27ZM60.76,42.91V34.27h4.4V29.39h-4.4V8.85h-7.6L39.22,30.08v4.19H54.68v8.64Z"/></g></g></svg>